<?xml version="1.0" encoding="UTF-8"?>
<svg id="_レイヤー_2" data-name="レイヤー 2" xmlns="http://www.w3.org/2000/svg" viewBox="0 0 823.35 317.6">
  <defs>
    <style>
      .cls-1 {
        fill: #231815;
      }

      .cls-2 {
        fill: #fff;
      }
    </style>
  </defs>
  <g id="_レイヤー_2-2" data-name="レイヤー 2">
    <g>
      <g>
        <path class="cls-2" d="M0,317.43V0h158.8v317.6H0v-.18ZM91.84,300.82l10.17-24.17,36.53-89.27,6.96-17.08c2.14-5.24,3.83-12.99,1.93-18.35-2.67-7.55-5.66-14.67-8.76-22.12l-36.62-87.83-11.72-26.99c-1.97-4.53-6.61-6.81-11.19-6.57s-8.44,3.11-10.34,7.71l-28.06,67.63-13.99,34.33-11.73,28.71c-3.65,8.93-3.74,14.35.14,23.59l31.75,75.62,12.43,29.57,10.92,25.25c1.98,4.57,6.17,7.34,10.91,7.27s8.76-2.7,10.7-7.31Z"/>
        <path d="M91.84,300.82c-1.94,4.61-6.04,7.24-10.7,7.31s-8.93-2.7-10.91-7.27l-10.92-25.25-12.43-29.57-31.75-75.62c-3.88-9.24-3.79-14.65-.14-23.59l11.73-28.71,13.99-34.33,28.06-67.63c1.91-4.6,5.64-7.47,10.34-7.71s9.22,2.04,11.19,6.57l11.72,26.99,36.62,87.83c3.11,7.45,6.09,14.57,8.76,22.12,1.9,5.37.21,13.11-1.93,18.35l-6.96,17.08-36.53,89.27-10.17,24.17ZM86.27,298.1l22.67-54.76,18.52-45.52,3.67-8.99,4.19-10.34c2.12-5.22,4.34-10.21,5.81-15.64.94-3.49,1.07-6.71-.08-10.12-2.45-7.29-5.36-14.08-8.32-21.21l-11.39-27.4-6.99-16.69-25.85-61.65c-1.16-2.76-2.31-5.16-3.64-7.74-.88-1.7-2.58-2.94-4.1-3.15-2.06-.29-3.95.29-5.12,2-.62.91-1.44,1.95-1.91,3.05l-27.61,66.48-11.97,29.56-13.56,33.24c-2.89,7.09-2.32,12.79.48,19.72l3.14,7.77,20.59,49.2,13.17,31.13,13.03,30.72c1.6,3.77,3.1,7.31,5.03,10.86,1.14,2.09,3.16,3.25,5.45,3.16,2.08-.08,3.84-1.43,4.76-3.66Z"/>
        <path class="cls-2" d="M86.27,298.1c-.92,2.23-2.68,3.58-4.76,3.66-2.29.09-4.31-1.07-5.45-3.16-1.94-3.55-3.44-7.09-5.03-10.86l-13.03-30.72-13.17-31.13-20.59-49.2-3.14-7.77c-2.8-6.93-3.38-12.63-.48-19.72l13.56-33.24,11.97-29.56,27.61-66.48c.46-1.11,1.29-2.14,1.91-3.05,1.16-1.71,3.06-2.29,5.12-2,1.52.22,3.22,1.46,4.1,3.15,1.33,2.58,2.48,4.98,3.64,7.74l25.85,61.65,6.99,16.69,11.39,27.4c2.96,7.13,5.87,13.93,8.32,21.21,1.15,3.41,1.02,6.64.08,10.12-1.47,5.43-3.69,10.42-5.81,15.64l-4.19,10.34-3.67,8.99-18.52,45.52-22.67,54.76ZM69.98,63.35c1.36,4.52,5.36,6.66,9.64,5.89,8.58-1.55,6.47-12.06,6.39-19.18l-.14-12.94c-1.57-.26-2.77-.23-4.34,0-.04,1.56-.12,2.75-.03,4.16.36,5.91.5,11.6.43,17.57-.02,1.97.02,4.01-1.46,5.5-.99,1-2.78,1.26-4.1.74-1.24-.49-2.03-1.49-3.05-3.08-.91.29-2.06.75-3.34,1.32ZM68.65,177.85c7.93,5.69,17.82,5.85,25.66.79.85-.55,1.58-1.46,2.1-2.3-2.98-3.05-6.66-4.33-10.71-5.25-6.98-1.58-11.48.31-17.49,3.6-3.79-3.59-3.57-9.48.38-12.99,7.35,5.65,20.23,5.68,26.84-.88-6.34-6.92-19.83-7.58-27.4-2.05-3.59-3.73-3.37-9.61.13-13.1,2.57,1.98,5.41,2.94,8.46,3.67,3.64.88,7.08.91,10.73-.17,3.05-.91,6.21-2,8.32-4.63-7.43-6.68-18.22-7.43-26.65-2.51-.74.43-1.67.47-2.14-.29-2.1-3.42-2.33-7.93.24-11.14,4.37-5.45,11.92-4.91,12.99-5.45.32-.16.72-1.1.72-1.47l-.04-26.85,13.89-13.67c.51-.5.86-1.04,1.11-1.93l-30.25-.07c-.92,0-1.64.2-2.69.62,1.82,2.13,3.42,3.66,5.38,5.41l4.25,3.8,5.84,5.42c.27,8.99.31,17.71.04,26.65-7.09.67-13.53,3.71-15.12,10.77-.91,4.05.53,7.49,2.82,10.66-3.53,4.52-3.96,10.26-.33,14.74.47.58.25,1.72-.17,2.28-3.11,4.18-3.04,9.79.15,13.86.68.87.6,1.98-.02,2.88-2.79,4.04-2.38,9.18.68,13.15s7.96,5.35,12.76,6.82v11.43s-14.64.07-14.64.07c-.64,0-1.53.72-1.46,1.18.06.39.65,1.19,1.11,1.18l33.27-.4c.12-.5.17-1.36.13-1.98l-15.85-.06-.09-13.15-4.77-1.28c-3.73-1-7.36-2.99-9.56-6.3s-1.55-8.21,1.4-11.08ZM51.41,176.12l4.42-.08-3.39-9.27-7.48-21.71c-1.96-.24-3.72-.25-5.59.1l-9.39,30.8c1.34.57,3.07.57,4.16,0l2.95-8.99h11.28s3.03,9.14,3.03,9.14ZM123.87,176.09l4.66-.23-3.33-6.78-3.33-7.04c4.24-1.61,6.54-5.4,5.93-9.8s-4.21-7.08-8.55-7.25-8.31-.12-12.82-.07l.07,3.02.03,28.03c1.43.47,2.97.41,4.37-.13l.08-13.12,6.69-.21,6.21,13.59ZM94.3,216.71c.6,0,.5-2.04-.25-2.04h-25.77c-.87.01-1.45.53-1.43,1.25.02.56.78,1.22,1.44,1.21l10.93-.22,15.07-.2ZM91.01,221.88c.58-.56.56-2.25-.14-2.24l-19.4.28c-.68,0-1.42.36-1.48.88-.04.37.68,1.1,1.09,1.1l19.94-.02ZM87.52,226.65c.37-.65.48-1.6.11-2.11l-13.07.12c-.65,0-1.4.62-1.33,1.12.06.43.84,1.03,1.35,1.03l12.94-.15ZM83.76,231.63c.46,0,1.23-.83,1.14-1.22-.41-1.84-6.12-1.01-7.55-.66-.5.16-.16,1.9.37,1.9l6.04-.02ZM90.75,266.88l-13.69.19c-.27-4.1-.16-8.07-.16-12.21v-14.98c-1.43-.12-2.72-.13-4.37-.05l.07,17.84-.09,13.26c4.29.08,8.31.11,12.54-.05l6.11-.23c.22-1.26.21-2.76-.42-3.78Z"/>
        <path d="M68.65,177.85c-2.94,2.87-3.68,7.65-1.4,11.08s5.83,5.29,9.56,6.3l4.77,1.28.09,13.15,15.85.06c.04.62-.01,1.48-.13,1.98l-33.27.4c-.46,0-1.04-.79-1.11-1.18-.08-.47.82-1.18,1.46-1.18l14.64-.07v-11.43c-4.81-1.47-9.57-2.68-12.77-6.82s-3.46-9.1-.68-13.15c.62-.89.7-2,.02-2.88-3.18-4.07-3.25-9.69-.15-13.86.42-.57.64-1.71.17-2.28-3.63-4.48-3.2-10.22.33-14.74-2.29-3.17-3.73-6.61-2.82-10.66,1.58-7.06,8.02-10.1,15.12-10.77.27-8.94.23-17.65-.04-26.65l-5.84-5.42-4.25-3.8c-1.96-1.75-3.56-3.28-5.38-5.41,1.06-.41,1.77-.62,2.69-.62l30.25.07c-.25.89-.6,1.43-1.11,1.93l-13.89,13.67.04,26.85c0,.37-.4,1.3-.72,1.47-1.07.55-8.62,0-12.99,5.45-2.57,3.21-2.34,7.72-.24,11.14.47.76,1.4.73,2.14.29,8.42-4.92,19.22-4.18,26.65,2.51-2.11,2.63-5.27,3.73-8.32,4.63-3.64,1.08-7.08,1.05-10.73.17-3.04-.74-5.88-1.69-8.46-3.67-3.5,3.48-3.72,9.37-.13,13.1,7.56-5.53,21.06-4.87,27.4,2.05-6.61,6.56-19.49,6.53-26.84.88-3.95,3.5-4.17,9.4-.38,12.99,6.01-3.29,10.5-5.18,17.49-3.6,4.05.91,7.73,2.19,10.71,5.25-.52.84-1.25,1.75-2.1,2.3-7.84,5.06-17.73,4.9-25.66-.79ZM78.28,92.88l.09-9.17c-3.52-.53-6.55-.79-10.34-.25,2.18,2.44,4.23,4.24,6.44,6.24l3.82,3.18ZM90.46,83.78l-9.7-.27.09,9.64c3.49-3.16,6.3-5.94,9.61-9.37ZM92.13,144.62c-6.8-4.79-15.53-4.88-22.42-.49,6.69,4.6,15.44,5.18,22.42.49ZM91.97,160.74c-6.37-4.57-14.71-4.8-21.62-.84,4.99,4.76,15.68,4.78,21.62.84ZM93.21,176.58c-7.14-5.11-16.05-5.07-22.97-.36,6.68,4.86,15.96,5.43,22.97.36Z"/>
        <path d="M123.87,176.09l-6.21-13.59-6.69.21-.08,13.12c-1.4.53-2.94.6-4.37.13l-.03-28.03-.07-3.02c4.51-.04,8.48-.1,12.82.07s7.96,3.03,8.55,7.25-1.68,8.19-5.93,9.8l3.33,7.04,3.33,6.78-4.66.23ZM120.09,158.44c2.39-.51,3.51-2.87,3.41-4.92-.09-1.86-1.26-4.35-3.55-4.54-3.2-.28-6.16-.18-9.42-.08l.28,10.08c3.26.02,6.15.14,9.29-.53Z"/>
        <path d="M51.41,176.12l-3.03-9.13h-11.28s-2.95,8.98-2.95,8.98c-1.09.56-2.82.57-4.16,0l9.39-30.8c1.87-.35,3.62-.34,5.59-.1l7.48,21.71,3.39,9.27-4.42.08ZM46.98,163.2l-4.71-14.1-4.3,14.17,9.01-.07Z"/>
        <path d="M90.75,266.88c.63,1.02.64,2.52.42,3.78l-6.11.23c-4.23.16-8.25.13-12.54.05l.09-13.26-.07-17.84c1.64-.08,2.94-.07,4.36.05v14.98c0,4.15-.11,8.11.16,12.21l13.69-.19Z"/>
        <path d="M69.98,63.35c1.28-.57,2.43-1.03,3.34-1.32,1.02,1.58,1.81,2.58,3.05,3.08,1.32.52,3.11.26,4.1-.74,1.48-1.49,1.44-3.54,1.46-5.5.07-5.98-.07-11.66-.43-17.57-.09-1.42-.01-2.61.03-4.16,1.57-.23,2.78-.26,4.34,0l.14,12.94c.08,7.11,2.19,17.63-6.39,19.18-4.28.77-8.29-1.37-9.64-5.89Z"/>
        <path d="M94.3,216.71l-15.07.2-10.93.22c-.66.01-1.42-.65-1.44-1.21-.02-.72.56-1.23,1.43-1.23h25.77c.74-.01.84,2.02.25,2.02Z"/>
        <path d="M91.01,221.88l-19.94.02c-.41,0-1.13-.73-1.09-1.1.06-.52.8-.87,1.48-.88l19.4-.28c.7-.01.72,1.68.14,2.24Z"/>
        <path d="M87.52,226.65l-12.94.15c-.5,0-1.29-.59-1.35-1.03-.06-.5.69-1.11,1.33-1.12l13.07-.12c.37.51.26,1.46-.11,2.11Z"/>
        <path d="M83.76,231.63l-6.04.02c-.53,0-.87-1.74-.37-1.9,1.43-.35,7.13-1.18,7.55.66.09.4-.67,1.22-1.14,1.22Z"/>
        <path class="cls-2" d="M93.21,176.58c-7.01,5.07-16.29,4.5-22.97-.36,6.92-4.71,15.83-4.75,22.97.36Z"/>
        <path class="cls-2" d="M92.13,144.62c-6.99,4.69-15.73,4.11-22.42-.49,6.9-4.39,15.62-4.3,22.42.49Z"/>
        <path class="cls-2" d="M91.97,160.74c-5.94,3.94-16.63,3.92-21.62-.84,6.91-3.97,15.26-3.73,21.62.84Z"/>
        <path class="cls-2" d="M78.28,92.88l-3.82-3.18c-2.21-2-4.26-3.8-6.44-6.24,3.8-.54,6.82-.27,10.34.25l-.09,9.17Z"/>
        <path class="cls-2" d="M90.46,83.78c-3.31,3.43-6.12,6.21-9.61,9.37l-.09-9.64,9.7.27Z"/>
        <path class="cls-2" d="M120.09,158.44c-3.14.67-6.02.55-9.29.53l-.28-10.08c3.26-.1,6.23-.19,9.42.08,2.29.2,3.46,2.68,3.55,4.54.1,2.05-1.03,4.41-3.41,4.92Z"/>
        <polygon class="cls-2" points="46.98 163.2 37.98 163.27 42.28 149.1 46.98 163.2"/>
      </g>
      <g>
        <path class="cls-1" d="M233.85,78.78c0-6,4.16-9,8.32-9s8.16,3,8.16,9v97.4c0,37.4-15.86,56.6-41.27,56.6-31.57,0-41.12-36.4-41.12-42.4,0-6.4,4.31-10.6,8.47-10.6,2.93,0,5.85,2.2,7.24,7.2,4.47,15.6,14.48,24.6,25.26,24.6,15.86,0,24.95-12.4,24.95-36.4v-96.4Z"/>
        <path class="cls-1" d="M358.74,185.98h-65.3l-13.25,37.8c-1.69,4.8-4.77,6.8-7.85,6.8-4.31,0-8.47-3.8-8.47-9.6,0-1.4.15-3,.77-4.6l48.05-135.6c2.62-7.4,8.01-11,13.55-11s11.09,3.6,13.55,11l47.9,135.6c.62,1.6.92,3.2.92,4.6,0,5.8-4.16,9.6-8.47,9.6-3.08,0-6.31-2-8.01-6.8l-13.4-37.8ZM327.63,96.58c-.31-.8-.92-1.2-1.39-1.2-.62,0-1.23.4-1.54,1.2l-24.33,69.4h51.44l-24.18-69.4Z"/>
        <path class="cls-1" d="M436.97,99.18c-2.93,3.8-13.25,11.4-16.17,11.4-4.62,0-8.01-6-8.01-11.6,0-3.4,1.23-6.6,4-8.4,5.7-3.4,14.48-10.6,19.41-17,2-2.6,4.62-3.8,7.08-3.8,5.08,0,10.01,4.6,10.01,12.6v139.2c0,6-4,9.2-8.16,9.2s-8.16-3.2-8.16-9.2v-122.4Z"/>
        <path class="cls-1" d="M537.84,167.78l-46.2-81.8c-1.08-2-1.69-4-1.69-6,0-5.6,4.31-10.2,8.62-10.2,2.31,0,4.77,1.2,6.47,4.4l41.12,73.4,41.12-73.4c1.69-3,4-4.4,6.31-4.4,4.31,0,8.78,4.4,8.78,10.2,0,1.8-.46,4-1.69,6l-46.2,81.8v53.6c0,6-4.16,9-8.32,9s-8.32-3-8.32-9v-53.6Z"/>
        <path class="cls-1" d="M632.08,228.18c-11.09,0-16.63-7.2-16.63-21.6v-112.8c0-14.4,5.54-21.6,16.63-21.6h65.61c5.39,0,8.01,5,8.01,10s-2.62,10.2-7.85,10.2h-61.14c-3.39,0-4.77,1.8-4.77,6.4v37.8h60.37c5.39,0,8.01,5,8.01,10s-2.62,10.2-7.85,10.2h-60.53v44.8c0,4.8,1.39,6.4,4.77,6.4h61.76c5.39,0,8.01,5,8.01,10s-2.62,10.2-8.01,10.2h-66.38Z"/>
        <path class="cls-1" d="M807.34,76.19c1.39-4.4,4.47-6.4,7.55-6.4,4.16,0,8.47,3.6,8.47,9.6,0,1.2-.15,2.6-.62,4l-40.35,134.8c-2.46,8.2-8.01,12.4-13.55,12.4s-11.09-4.2-13.55-12.4l-40.5-134.8c-.46-1.4-.62-2.8-.62-4.2,0-5.8,4.31-9.4,8.47-9.4,3.23,0,6.16,2,7.55,6.4l37.73,127.6c.15.6.46.8.62.8.46,0,.92-.8.92-.8l37.89-127.6Z"/>
      </g>
    </g>
  </g>
</svg>